<svg width="1023" height="1023" viewBox="0 0 1023 1023" fill="none" xmlns="http://www.w3.org/2000/svg">
<g clip-path="url(#clip0_403_98)">
<rect width="1023" height="1023" rx="173" fill="#21252B"/>
<rect opacity="0.35" width="341" height="341" rx="170.5" transform="matrix(-1 0 0 1 688 682)" fill="#80D480"/>
<rect opacity="0.35" width="341" height="341" rx="170.5" transform="matrix(-1 0 0 1 755 682)" fill="#80D480"/>
<rect opacity="0.35" width="341" height="341" rx="170.5" transform="matrix(-1 0 0 1 822 682)" fill="#80D480"/>
<rect opacity="0.35" width="341" height="341" rx="170.5" transform="matrix(-1 0 0 1 889 682)" fill="#80D480"/>
<rect opacity="0.35" width="341" height="341" rx="170.5" transform="matrix(-1 0 0 1 956 682)" fill="#80D480"/>
<rect width="341" height="341" rx="170.5" transform="matrix(-1 0 0 1 1023 682)" fill="#80D480"/>
<rect opacity="0.3" width="341" height="341" rx="170.5" transform="matrix(-1 0 0 1 514.5 341)" fill="#C172EA"/>
<rect opacity="0.3" width="341" height="341" rx="170.5" transform="matrix(-1 0 0 1 581.5 341)" fill="#C172EA"/>
<rect opacity="0.3" width="341" height="341" rx="170.5" transform="matrix(-1 0 0 1 648.5 341)" fill="#C172EA"/>
<rect opacity="0.3" width="341" height="341" rx="170.5" transform="matrix(-1 0 0 1 715.5 341)" fill="#C172EA"/>
<rect opacity="0.3" width="341" height="341" rx="170.5" transform="matrix(-1 0 0 1 782.5 341)" fill="#C172EA"/>
<rect width="341" height="341" rx="170.5" transform="matrix(-1 0 0 1 849.5 341)" fill="#C172EA"/>
<rect opacity="0.3" width="341" height="341" rx="170.5" transform="matrix(-1 0 0 1 341 0)" fill="#3188F5"/>
<rect opacity="0.3" width="341" height="341" rx="170.5" transform="matrix(-1 0 0 1 408 0)" fill="#3188F5"/>
<rect opacity="0.3" width="341" height="341" rx="170.5" transform="matrix(-1 0 0 1 475 0)" fill="#3188F5"/>
<rect opacity="0.3" width="341" height="341" rx="170.5" transform="matrix(-1 0 0 1 542 0)" fill="#3188F5"/>
<rect opacity="0.3" width="341" height="341" rx="170.5" transform="matrix(-1 0 0 1 609 0)" fill="#3188F5"/>
<rect width="341" height="341" rx="170.5" transform="matrix(-1 0 0 1 676 0)" fill="#348EFF"/>
<path d="M154.686 829.27L112.239 855.363L154.686 881.697L149.275 889.032L103.582 860.534V850.072L149.756 821.574L154.686 829.27ZM214.281 889.753C212.117 891.196 209.471 892.319 206.345 893.12C203.299 893.922 200.252 894.323 197.206 894.323C190.553 894.323 185.342 892.599 181.574 889.152C177.807 885.625 175.923 881.015 175.923 875.324V837.567H161.373V829.63H175.923V815.321L186.023 814.119V829.63H208.028L206.706 837.567H186.023V875.204C186.023 878.811 186.985 881.496 188.909 883.26C190.833 885.024 193.92 885.905 198.168 885.905C202.497 885.905 206.545 884.903 210.313 882.899L214.281 889.753ZM232.872 874.602C232.872 878.691 233.714 881.697 235.397 883.621C237.161 885.465 239.887 886.386 243.574 886.386C246.941 886.386 250.188 885.425 253.314 883.501C256.44 881.577 258.926 879.172 260.769 876.286V829.63H270.87V893H262.212L261.371 884.463C258.885 887.589 255.799 890.034 252.112 891.798C248.504 893.481 244.817 894.323 241.049 894.323C235.037 894.323 230.467 892.719 227.341 889.513C224.295 886.306 222.772 881.697 222.772 875.685V829.63H232.872V874.602ZM306.416 877.368C306.416 883.06 309.903 885.905 316.877 885.905C320.164 885.905 323.691 885.184 327.459 883.741L330.104 891.076C326.096 893.24 321.086 894.323 315.074 894.323C309.382 894.323 304.813 892.76 301.365 889.633C297.999 886.507 296.315 882.258 296.315 876.887V812.195H276.835V804.138H306.416V877.368ZM364.568 800.05C366.812 800.05 368.616 800.731 369.979 802.094C371.342 803.377 372.023 805.06 372.023 807.144C372.023 809.229 371.342 810.952 369.979 812.315C368.616 813.598 366.812 814.239 364.568 814.239C362.403 814.239 360.64 813.598 359.277 812.315C357.994 810.952 357.353 809.229 357.353 807.144C357.353 805.06 357.994 803.377 359.277 802.094C360.64 800.731 362.403 800.05 364.568 800.05ZM372.624 884.944H390.421V893H343.044V884.944H362.524V837.687H343.645V829.63H372.624V884.944ZM399.392 829.63H408.05L408.892 838.529C411.377 835.322 414.503 832.837 418.271 831.073C422.119 829.23 425.967 828.308 429.814 828.308C441.679 828.308 447.611 834.56 447.611 847.066V893H437.51V854.521C437.51 849.792 437.23 846.184 436.668 843.699C436.187 841.214 435.185 839.37 433.662 838.168C432.139 836.965 429.814 836.364 426.688 836.364C423.241 836.364 419.994 837.406 416.948 839.491C413.902 841.575 411.417 844.06 409.493 846.946V893H399.392V829.63ZM507.927 850.192V860.534L462.234 889.032L456.823 881.577L499.27 855.363L456.823 829.27L461.753 821.574L507.927 850.192Z" fill="#D9E0EA"/>
</g>
<defs>
<clipPath id="clip0_403_98">
<rect width="1023" height="1023" rx="173" fill="white"/>
</clipPath>
</defs>
</svg>
