<svg width="1023" height="1023" viewBox="0 0 1023 1023" fill="none" xmlns="http://www.w3.org/2000/svg">
<g clip-path="url(#clip0_402_8)">
<rect width="1023" height="1023" rx="173" fill="#21252B"/>
<rect opacity="0.3" width="341" height="341" rx="170.5" transform="matrix(-1 0 0 1 668 682)" fill="#80D480"/>
<rect opacity="0.3" width="341" height="341" rx="170.5" transform="matrix(-1 0 0 1 739 682)" fill="#80D480"/>
<rect opacity="0.3" width="341" height="341" rx="170.5" transform="matrix(-1 0 0 1 810 682)" fill="#80D480"/>
<rect opacity="0.3" width="341" height="341" rx="170.5" transform="matrix(-1 0 0 1 881 682)" fill="#80D480"/>
<rect opacity="0.3" width="341" height="341" rx="170.5" transform="matrix(-1 0 0 1 952 682)" fill="#80D480"/>
<rect width="341" height="341" rx="170.5" transform="matrix(-1 0 0 1 1023 682)" fill="#80D480"/>
<rect opacity="0.3" width="341" height="341" rx="170.5" transform="matrix(-1 0 0 1 519 341)" fill="#C172EA"/>
<rect opacity="0.3" width="341" height="341" rx="170.5" transform="matrix(-1 0 0 1 590 341)" fill="#C172EA"/>
<rect opacity="0.3" width="341" height="341" rx="170.5" transform="matrix(-1 0 0 1 661 341)" fill="#C172EA"/>
<rect opacity="0.3" width="341" height="341" rx="170.5" transform="matrix(-1 0 0 1 732 341)" fill="#C172EA"/>
<rect opacity="0.3" width="341" height="341" rx="170.5" transform="matrix(-1 0 0 1 803 341)" fill="#C172EA"/>
<rect width="341" height="341" rx="170.5" transform="matrix(-1 0 0 1 874 341)" fill="#C172EA"/>
<rect opacity="0.3" width="341" height="341" rx="170.5" transform="matrix(-1 0 0 1 341 0)" fill="#3188F5"/>
<rect opacity="0.3" width="341" height="341" rx="170.5" transform="matrix(-1 0 0 1 412 0)" fill="#3188F5"/>
<rect opacity="0.3" width="341" height="341" rx="170.5" transform="matrix(-1 0 0 1 483 0)" fill="#3188F5"/>
<rect opacity="0.3" width="341" height="341" rx="170.5" transform="matrix(-1 0 0 1 554 0)" fill="#3188F5"/>
<rect opacity="0.3" width="341" height="341" rx="170.5" transform="matrix(-1 0 0 1 625 0)" fill="#3188F5"/>
<rect width="341" height="341" rx="170.5" transform="matrix(-1 0 0 1 696 0)" fill="#3188F5"/>
<path d="M680.022 117.182C669.205 117.182 664.121 120.435 664.772 126.942L667.212 151.952C667.293 152.684 667.334 153.741 667.334 155.124C667.334 159.028 666.399 162.037 664.528 164.152C662.657 166.185 659.77 167.568 655.866 168.3C659.851 169.032 662.739 170.415 664.528 172.448C666.399 174.4 667.334 177.369 667.334 181.354C667.334 182.737 667.293 183.835 667.212 184.648L664.772 209.658C664.447 213.237 665.667 215.758 668.432 217.222C671.197 218.686 675.061 219.418 680.022 219.418V227.592C672.702 227.592 666.724 226.331 662.088 223.81C657.452 221.289 655.134 217.019 655.134 211C655.134 209.943 655.175 209.129 655.256 208.56L657.818 185.38C657.899 184.811 657.94 183.997 657.94 182.94C657.94 179.361 656.598 176.718 653.914 175.01C651.23 173.302 646.35 172.448 639.274 172.448V164.152C646.35 164.152 651.23 163.339 653.914 161.712C656.598 160.004 657.94 157.361 657.94 153.782C657.94 152.806 657.899 152.033 657.818 151.464L655.256 128.04C655.175 127.471 655.134 126.657 655.134 125.6C655.134 119.581 657.452 115.311 662.088 112.79C666.724 110.269 672.702 109.008 680.022 109.008V117.182Z" fill="#D9E0EA"/>
<path d="M748.05 207.706C745.854 209.17 743.17 210.309 739.998 211.122C736.908 211.935 733.817 212.342 730.726 212.342C723.976 212.342 718.689 210.593 714.866 207.096C711.044 203.517 709.132 198.841 709.132 193.066V154.758H694.37V146.706H709.132V132.188L719.38 130.968V146.706H741.706L740.364 154.758H719.38V192.944C719.38 196.604 720.356 199.329 722.308 201.118C724.26 202.907 727.392 203.802 731.702 203.802C736.094 203.802 740.202 202.785 744.024 200.752L748.05 207.706Z" fill="#D9E0EA"/>
<path d="M771.183 158.418C771.183 155.734 772.118 153.457 773.989 151.586C775.859 149.634 778.177 148.658 780.943 148.658C783.789 148.658 786.148 149.634 788.019 151.586C789.889 153.457 790.825 155.734 790.825 158.418C790.825 161.183 789.889 163.542 788.019 165.494C786.148 167.446 783.789 168.422 780.943 168.422C778.177 168.422 775.859 167.446 773.989 165.494C772.118 163.542 771.183 161.183 771.183 158.418ZM771.183 202.46C771.183 199.776 772.118 197.458 773.989 195.506C775.859 193.554 778.177 192.578 780.943 192.578C783.789 192.578 786.148 193.554 788.019 195.506C789.889 197.377 790.825 199.695 790.825 202.46C790.825 205.307 789.889 207.665 788.019 209.536C786.148 211.407 783.789 212.342 780.943 212.342C778.177 212.342 775.859 211.407 773.989 209.536C772.118 207.665 771.183 205.307 771.183 202.46Z" fill="#D9E0EA"/>
<path d="M867.515 207.706C865.319 209.17 862.635 210.309 859.463 211.122C856.372 211.935 853.282 212.342 850.191 212.342C843.44 212.342 838.154 210.593 834.331 207.096C830.508 203.517 828.597 198.841 828.597 193.066V154.758H813.835V146.706H828.597V132.188L838.845 130.968V146.706H861.171L859.829 154.758H838.845V192.944C838.845 196.604 839.821 199.329 841.773 201.118C843.725 202.907 846.856 203.802 851.167 203.802C855.559 203.802 859.666 202.785 863.489 200.752L867.515 207.706Z" fill="#D9E0EA"/>
<path d="M882.107 109.008C889.427 109.008 895.405 110.269 900.041 112.79C904.677 115.311 906.995 119.581 906.995 125.6C906.995 126.657 906.955 127.471 906.873 128.04L904.311 151.464C904.23 151.871 904.189 152.481 904.189 153.294C904.189 156.954 905.613 159.679 908.459 161.468C911.387 163.257 916.186 164.152 922.855 164.152V172.448C916.105 172.448 911.306 173.343 908.459 175.132C905.613 176.921 904.189 179.687 904.189 183.428C904.189 184.241 904.23 184.892 904.311 185.38L906.873 208.56C906.955 209.129 906.995 209.943 906.995 211C906.995 217.019 904.677 221.289 900.041 223.81C895.405 226.331 889.427 227.592 882.107 227.592V219.418C887.069 219.418 890.932 218.686 893.697 217.222C896.463 215.758 897.683 213.237 897.357 209.658L894.917 184.648C894.755 183.021 894.673 181.923 894.673 181.354C894.673 177.287 895.69 174.278 897.723 172.326C899.757 170.374 903.051 169.073 907.605 168.422C903.213 167.609 899.96 166.185 897.845 164.152C895.812 162.037 894.795 158.987 894.795 155.002C894.795 153.701 894.836 152.684 894.917 151.952L897.357 126.942C898.008 120.435 892.925 117.182 882.107 117.182V109.008Z" fill="#D9E0EA"/>
<path d="M141.586 829.34L98.5201 855.814L141.586 882.532L136.096 889.974L89.7361 861.06V850.446L136.584 821.532L141.586 829.34Z" fill="#D9E0EA"/>
<path d="M199.732 803.842V894H190.704L189.728 885.582C187.37 888.835 184.645 891.275 181.554 892.902C178.464 894.529 175.129 895.342 171.55 895.342C163.417 895.342 157.276 892.373 153.128 886.436C149.062 880.499 147.028 872.325 147.028 861.914C147.028 855.489 148.045 849.755 150.078 844.712C152.112 839.588 154.999 835.603 158.74 832.756C162.563 829.828 167.036 828.364 172.16 828.364C179.236 828.364 185.011 830.926 189.484 836.05V802.622L199.732 803.842ZM174.844 836.66C169.476 836.66 165.328 838.775 162.4 843.004C159.554 847.233 158.13 853.537 158.13 861.914C158.13 870.21 159.432 876.513 162.034 880.824C164.718 885.053 168.582 887.168 173.624 887.168C179.724 887.168 185.011 883.752 189.484 876.92V844.956C187.695 842.272 185.54 840.239 183.018 838.856C180.497 837.392 177.772 836.66 174.844 836.66Z" fill="#D9E0EA"/>
<path d="M235.065 799.694C237.342 799.694 239.172 800.385 240.555 801.768C241.937 803.069 242.629 804.777 242.629 806.892C242.629 809.007 241.937 810.755 240.555 812.138C239.172 813.439 237.342 814.09 235.065 814.09C232.869 814.09 231.079 813.439 229.697 812.138C228.395 810.755 227.745 809.007 227.745 806.892C227.745 804.777 228.395 803.069 229.697 801.768C231.079 800.385 232.869 799.694 235.065 799.694ZM243.239 885.826H261.295V894H213.227V885.826H232.991V837.88H213.837V829.706H243.239V885.826Z" fill="#D9E0EA"/>
<path d="M300.653 894H288.819L265.517 829.706H276.497L295.041 884.728L313.341 829.706H324.077L300.653 894Z" fill="#D9E0EA"/>
<path d="M380.515 850.568V861.06L334.155 889.974L328.665 882.41L371.731 855.814L328.665 829.34L333.667 821.532L380.515 850.568Z" fill="#D9E0EA"/>
</g>
<defs>
<clipPath id="clip0_402_8">
<rect width="1023" height="1023" rx="173" fill="white"/>
</clipPath>
</defs>
</svg>
