<svg width="1023" height="1023" viewBox="0 0 1023 1023" fill="none" xmlns="http://www.w3.org/2000/svg">
<g clip-path="url(#clip0_402_8)">
<rect width="1023" height="1023" rx="173" fill="#21252B"/>
<rect opacity="0.18" width="341" height="341" rx="170.5" transform="matrix(-1 0 0 1 1024 341)" fill="#C9696B"/>
<rect opacity="0.35" width="341" height="341" rx="170.5" transform="matrix(-1 0 0 1 1092 341)" fill="#C9696B"/>
<rect opacity="0.35" width="341" height="341" rx="170.5" transform="matrix(-1 0 0 1 1160 341)" fill="#C9696B"/>
<rect opacity="0.35" width="341" height="341" rx="170.5" transform="matrix(-1 0 0 1 1228 341)" fill="#C9696B"/>
<rect opacity="0.35" width="341" height="341" rx="170.5" transform="matrix(-1 0 0 1 1296 341)" fill="#C9696B"/>
<rect opacity="0.18" width="341" height="341" rx="170.5" transform="matrix(-1 0 0 1 341 341)" fill="#80D480"/>
<rect opacity="0.35" width="341" height="341" rx="170.5" transform="matrix(-1 0 0 1 409 341)" fill="#80D480"/>
<rect opacity="0.35" width="341" height="341" rx="170.5" transform="matrix(-1 0 0 1 477 341)" fill="#80D480"/>
<rect opacity="0.35" width="341" height="341" rx="170.5" transform="matrix(-1 0 0 1 545 341)" fill="#80D480"/>
<rect opacity="0.35" width="341" height="341" rx="170.5" transform="matrix(-1 0 0 1 613 341)" fill="#80D480"/>
<rect opacity="0.35" width="341" height="341" rx="170.5" transform="matrix(-1 0 0 1 681 341)" fill="#80D480"/>
<rect width="341" height="341" rx="170.5" transform="matrix(-1 0 0 1 749 341)" fill="#84E584"/>
<rect opacity="0.3" width="341" height="341" rx="170.5" transform="matrix(-1 0 0 1 683 0)" fill="#C172EA"/>
<rect opacity="0.3" width="341" height="341" rx="170.5" transform="matrix(-1 0 0 1 751 0)" fill="#C172EA"/>
<rect opacity="0.3" width="341" height="341" rx="170.5" transform="matrix(-1 0 0 1 819 0)" fill="#C172EA"/>
<rect opacity="0.3" width="341" height="341" rx="170.5" transform="matrix(-1 0 0 1 887 0)" fill="#C172EA"/>
<rect opacity="0.3" width="341" height="341" rx="170.5" transform="matrix(-1 0 0 1 955 0)" fill="#C172EA"/>
<rect width="341" height="341" rx="170.5" transform="matrix(-1 0 0 1 1023 0)" fill="#CE6CFF"/>
<rect opacity="0.3" width="341" height="341" rx="170.5" transform="matrix(-1 0 0 1 341 0)" fill="#3188F5"/>
<rect opacity="0.3" width="341" height="341" rx="170.5" transform="matrix(-1 0 0 1 409 0)" fill="#3188F5"/>
<rect opacity="0.3" width="341" height="341" rx="170.5" transform="matrix(-1 0 0 1 477 0)" fill="#3188F5"/>
<rect opacity="0.3" width="341" height="341" rx="170.5" transform="matrix(-1 0 0 1 545 0)" fill="#3188F5"/>
<rect width="341" height="341" rx="170.5" transform="matrix(-1 0 0 1 613 0)" fill="#348EFF"/>
<path d="M154.686 836.27L112.239 862.363L154.686 888.697L149.275 896.032L103.582 867.534V857.072L149.756 828.574L154.686 836.27ZM214.281 896.753C212.117 898.196 209.471 899.319 206.345 900.12C203.299 900.922 200.252 901.323 197.206 901.323C190.553 901.323 185.342 899.599 181.574 896.152C177.807 892.625 175.923 888.015 175.923 882.324V844.567H161.373V836.63H175.923V822.321L186.023 821.119V836.63H208.028L206.706 844.567H186.023V882.204C186.023 885.811 186.985 888.496 188.909 890.26C190.833 892.024 193.92 892.905 198.168 892.905C202.497 892.905 206.545 891.903 210.313 889.899L214.281 896.753ZM232.872 881.602C232.872 885.691 233.714 888.697 235.397 890.621C237.161 892.465 239.887 893.386 243.574 893.386C246.941 893.386 250.188 892.425 253.314 890.501C256.44 888.577 258.926 886.172 260.769 883.286V836.63H270.87V900H262.212L261.371 891.463C258.885 894.589 255.799 897.034 252.112 898.798C248.504 900.481 244.817 901.323 241.049 901.323C235.037 901.323 230.467 899.719 227.341 896.513C224.295 893.306 222.772 888.697 222.772 882.685V836.63H232.872V881.602ZM306.416 884.368C306.416 890.06 309.903 892.905 316.877 892.905C320.164 892.905 323.691 892.184 327.459 890.741L330.104 898.076C326.096 900.24 321.086 901.323 315.074 901.323C309.382 901.323 304.813 899.76 301.365 896.633C297.999 893.507 296.315 889.258 296.315 883.887V819.195H276.835V811.138H306.416V884.368ZM364.568 807.05C366.812 807.05 368.616 807.731 369.979 809.094C371.342 810.377 372.023 812.06 372.023 814.144C372.023 816.229 371.342 817.952 369.979 819.315C368.616 820.598 366.812 821.239 364.568 821.239C362.403 821.239 360.64 820.598 359.277 819.315C357.994 817.952 357.353 816.229 357.353 814.144C357.353 812.06 357.994 810.377 359.277 809.094C360.64 807.731 362.403 807.05 364.568 807.05ZM372.624 891.944H390.421V900H343.044V891.944H362.524V844.687H343.645V836.63H372.624V891.944ZM399.392 836.63H408.05L408.892 845.529C411.377 842.322 414.503 839.837 418.271 838.073C422.119 836.23 425.967 835.308 429.814 835.308C441.679 835.308 447.611 841.56 447.611 854.066V900H437.51V861.521C437.51 856.792 437.23 853.184 436.668 850.699C436.187 848.214 435.185 846.37 433.662 845.168C432.139 843.965 429.814 843.364 426.688 843.364C423.241 843.364 419.994 844.406 416.948 846.491C413.902 848.575 411.417 851.06 409.493 853.946V900H399.392V836.63ZM461.272 858.034H503.358V866.692H461.272V858.034ZM565.238 811.138V900H556.339L555.377 891.703C553.053 894.91 550.367 897.315 547.321 898.918C544.275 900.521 540.988 901.323 537.461 901.323C529.444 901.323 523.392 898.397 519.304 892.545C515.295 886.693 513.291 878.636 513.291 868.375C513.291 862.042 514.293 856.391 516.298 851.421C518.302 846.37 521.147 842.442 524.835 839.637C528.603 836.751 533.012 835.308 538.062 835.308C545.036 835.308 550.728 837.833 555.137 842.883V809.936L565.238 811.138ZM540.707 843.484C535.417 843.484 531.328 845.569 528.442 849.737C525.637 853.906 524.234 860.118 524.234 868.375C524.234 876.552 525.516 882.765 528.082 887.013C530.727 891.182 534.535 893.266 539.505 893.266C545.517 893.266 550.728 889.899 555.137 883.166V851.661C553.373 849.016 551.249 847.012 548.764 845.649C546.279 844.206 543.593 843.484 540.707 843.484ZM584.069 871.862C584.31 878.837 586.113 884.087 589.48 887.615C592.927 891.142 597.256 892.905 602.467 892.905C605.593 892.905 608.439 892.465 611.004 891.583C613.65 890.621 616.455 889.178 619.422 887.254L624.111 893.988C621.145 896.312 617.738 898.116 613.89 899.399C610.123 900.681 606.315 901.323 602.467 901.323C593.328 901.323 586.194 898.357 581.063 892.425C576.013 886.412 573.488 878.396 573.488 868.375C573.488 862.042 574.61 856.391 576.854 851.421C579.099 846.37 582.306 842.442 586.474 839.637C590.643 836.751 595.493 835.308 601.024 835.308C609.04 835.308 615.333 838.113 619.903 843.725C624.552 849.256 626.877 856.832 626.877 866.451C626.877 868.295 626.797 870.099 626.636 871.862H584.069ZM601.144 843.605C596.254 843.605 592.286 845.368 589.24 848.895C586.194 852.343 584.47 857.433 584.069 864.167H617.017C616.936 857.513 615.493 852.423 612.688 848.895C609.882 845.368 606.034 843.605 601.144 843.605ZM656.531 893.026C661.34 893.026 665.148 892.104 667.954 890.26C670.76 888.416 672.163 885.971 672.163 882.925C672.163 880.841 671.802 879.157 671.08 877.875C670.359 876.512 668.916 875.31 666.751 874.267C664.587 873.145 661.3 872.023 656.891 870.9C649.516 869.057 644.065 866.852 640.538 864.287C637.011 861.642 635.247 857.754 635.247 852.623C635.247 847.332 637.452 843.124 641.861 839.997C646.27 836.871 652.081 835.308 659.296 835.308C668.114 835.308 675.81 837.632 682.383 842.282L677.814 849.256C675.169 847.412 672.403 846.01 669.517 845.048C666.631 844.005 663.304 843.484 659.537 843.484C650.398 843.484 645.829 846.25 645.829 851.781C645.829 853.705 646.31 855.269 647.272 856.471C648.314 857.673 649.957 858.756 652.202 859.718C654.526 860.599 657.973 861.682 662.543 862.964C669.437 864.808 674.567 867.173 677.934 870.059C681.381 872.865 683.105 876.993 683.105 882.444C683.105 888.777 680.54 893.507 675.409 896.633C670.279 899.76 663.986 901.323 656.531 901.323C646.59 901.323 638.333 898.477 631.76 892.785L637.411 886.172C639.977 888.256 642.903 889.939 646.189 891.222C649.476 892.425 652.923 893.026 656.531 893.026ZM717.809 807.05C720.054 807.05 721.857 807.731 723.22 809.094C724.583 810.377 725.264 812.06 725.264 814.144C725.264 816.229 724.583 817.952 723.22 819.315C721.857 820.598 720.054 821.239 717.809 821.239C715.645 821.239 713.881 820.598 712.518 819.315C711.236 817.952 710.594 816.229 710.594 814.144C710.594 812.06 711.236 810.377 712.518 809.094C713.881 807.731 715.645 807.05 717.809 807.05ZM725.865 891.944H743.662V900H696.285V891.944H715.765V844.687H696.886V836.63H725.865V891.944ZM807.225 839.516C804.82 840.318 802.215 840.839 799.409 841.08C796.603 841.24 793.036 841.32 788.707 841.32C796.082 844.687 799.77 850.018 799.77 857.313C799.77 863.726 797.645 868.936 793.397 872.945C789.148 876.873 783.336 878.837 775.961 878.837C772.193 878.837 769.027 878.396 766.462 877.514C765.5 878.235 764.698 879.157 764.057 880.28C763.496 881.402 763.215 882.524 763.215 883.647C763.215 887.254 766.021 889.058 771.632 889.058H783.056C787.224 889.058 790.992 889.819 794.359 891.342C797.806 892.785 800.491 894.829 802.415 897.475C804.419 900.12 805.421 903.046 805.421 906.253C805.421 912.425 802.776 917.155 797.485 920.442C792.274 923.809 784.859 925.492 775.24 925.492C765.46 925.492 758.565 923.969 754.557 920.923C750.549 917.877 748.545 913.027 748.545 906.373H757.684C757.684 909.018 758.165 911.103 759.127 912.626C760.169 914.229 761.932 915.391 764.417 916.113C766.983 916.915 770.59 917.315 775.24 917.315C782.054 917.315 787.064 916.434 790.27 914.67C793.557 912.906 795.2 910.301 795.2 906.854C795.2 903.968 793.878 901.724 791.232 900.12C788.587 898.597 785.18 897.836 781.011 897.836H769.708C764.498 897.836 760.53 896.713 757.804 894.469C755.078 892.144 753.716 889.258 753.716 885.811C753.716 883.807 754.317 881.843 755.519 879.919C756.722 877.915 758.445 876.191 760.69 874.748C757.082 872.905 754.397 870.58 752.633 867.774C750.95 864.888 750.108 861.401 750.108 857.313C750.108 853.064 751.15 849.296 753.235 846.01C755.399 842.643 758.365 840.037 762.133 838.194C765.981 836.27 770.39 835.308 775.36 835.308C782.575 835.308 788.066 834.907 791.834 834.105C795.601 833.304 799.73 831.941 804.219 830.017L807.225 839.516ZM775.24 842.763C770.35 842.763 766.662 844.086 764.177 846.731C761.692 849.296 760.449 852.824 760.449 857.313C760.449 861.802 761.692 865.409 764.177 868.135C766.742 870.78 770.51 872.103 775.48 872.103C779.969 872.103 783.376 870.82 785.701 868.255C788.106 865.61 789.308 861.922 789.308 857.192C789.308 847.573 784.619 842.763 775.24 842.763ZM811.507 836.63H820.165L821.006 845.529C823.491 842.322 826.618 839.837 830.385 838.073C834.233 836.23 838.081 835.308 841.929 835.308C853.793 835.308 859.725 841.56 859.725 854.066V900H849.625V861.521C849.625 856.792 849.344 853.184 848.783 850.699C848.302 848.214 847.3 846.37 845.777 845.168C844.254 843.965 841.929 843.364 838.803 843.364C835.356 843.364 832.109 844.406 829.063 846.491C826.017 848.575 823.531 851.06 821.607 853.946V900H811.507V836.63ZM920.042 857.192V867.534L874.348 896.032L868.937 888.577L911.384 862.363L868.937 836.27L873.867 828.574L920.042 857.192Z" fill="#D9E0EA"/>
</g>
<defs>
<clipPath id="clip0_402_8">
<rect width="1023" height="1023" rx="173" fill="white"/>
</clipPath>
</defs>
</svg>
